<?xml version="1.0" encoding="UTF-8"?><svg id="_图层_2" xmlns="http://www.w3.org/2000/svg" viewBox="0 0 300 300"><defs><style>.cls-1{fill:none;}.cls-2{fill:#fab005;}.cls-3{fill:#ffd43b;stroke:#fbae17;stroke-miterlimit:10;stroke-width:4px;}</style></defs><g id="_图层_1-2"><rect class="cls-1" width="300" height="300"/><path class="cls-3" d="m35.92,43.27c-7.15,0-12.92,5.77-12.92,12.92s5.77,12.92,12.92,12.92h51.69v142.14c0,7.15,5.77,12.92,12.92,12.92s12.92-5.77,12.92-12.92V69.11h51.69c7.15,0,12.92-5.77,12.92-12.92s-5.77-12.92-12.92-12.92H35.92Z"/><path class="cls-2" d="m121.93,101.93c0-14.25,11.59-25.84,25.84-25.84h38.77c49.95,0,90.45,40.5,90.45,90.45s-40.5,90.45-90.45,90.45h-38.77c-14.25,0-25.84-11.59-25.84-25.84V101.93Zm64.61,0h-38.77v129.22h38.77c35.7,0,64.61-28.91,64.61-64.61s-28.91-64.61-64.61-64.61Z"/></g></svg>