<svg width="300" height="300" viewBox="0 0 300 300" fill="none" xmlns="http://www.w3.org/2000/svg">
<g clip-path="url(#clip0_2_17)">
<g filter="url(#filter0_i_2_17)">
<path d="M113 245.456L113 100C113 97.2387 110.761 95.0001 108 95.0001L73.3318 95C70.1016 95 67.7191 98.0171 68.468 101.159L103.136 246.615C104.511 252.383 113 251.385 113 245.456Z" fill="#FFD43B"/>
<path d="M215.333 82L37.0001 82C34.2387 82 32.0001 79.7614 32.0001 77L32 39.1719C32 35.9929 34.9277 33.621 38.0375 34.2807L216.37 72.1088C222.243 73.3547 221.337 82 215.333 82Z" fill="#FFD43B"/>
<path d="M254.24 224H129C126.239 224 124 226.239 124 229L124 252.953C124 256.091 126.857 258.454 129.939 257.864L255.18 233.911C261.136 232.772 260.305 224 254.24 224Z" fill="#FAB005"/>
<path d="M215 95.455L215 207C215 209.761 217.239 212 220 212L249.505 212C252.786 212 255.178 208.893 254.339 205.721L224.834 94.1764C223.336 88.5151 215 89.599 215 95.455Z" fill="#FAB005"/>
</g>
</g>
<defs>
<filter id="filter0_i_2_17" x="32" y="34.17" width="227.243" height="227.785" filterUnits="userSpaceOnUse" color-interpolation-filters="sRGB">
<feFlood flood-opacity="0" result="BackgroundImageFix"/>
<feBlend mode="normal" in="SourceGraphic" in2="BackgroundImageFix" result="shape"/>
<feColorMatrix in="SourceAlpha" type="matrix" values="0 0 0 0 0 0 0 0 0 0 0 0 0 0 0 0 0 0 127 0" result="hardAlpha"/>
<feOffset dy="4"/>
<feGaussianBlur stdDeviation="7.5"/>
<feComposite in2="hardAlpha" operator="arithmetic" k2="-1" k3="1"/>
<feColorMatrix type="matrix" values="0 0 0 0 0 0 0 0 0 0 0 0 0 0 0 0 0 0 0.75 0"/>
<feBlend mode="normal" in2="shape" result="effect1_innerShadow_2_17"/>
</filter>
<clipPath id="clip0_2_17">
<rect width="300" height="300" fill="white"/>
</clipPath>
</defs>
</svg>
